<?xml version="1.0" encoding="UTF-8" standalone="no"?><!DOCTYPE svg PUBLIC "-//W3C//DTD SVG 1.1//EN" "http://www.w3.org/Graphics/SVG/1.1/DTD/svg11.dtd"><svg width="100%" height="100%" viewBox="0 0 28 28" version="1.1" xmlns="http://www.w3.org/2000/svg" xmlns:xlink="http://www.w3.org/1999/xlink" xml:space="preserve" xmlns:serif="http://www.serif.com/" style="fill-rule:evenodd;clip-rule:evenodd;stroke-linejoin:round;stroke-miterlimit:1.41421;"><path d="M10.398,13.79c0,-1.68 -1.29,-3.417 -3.478,-3.417c-1.681,0 -3.42,1.289 -3.42,3.473c0,1.68 1.29,3.416 3.476,3.416c0.702,0 1.402,-0.223 1.991,-0.643l1.01,1.008l0.449,-0.449l-0.954,-0.952c0.589,-0.644 0.926,-1.484 0.926,-2.436Zm-3.478,-2.8c1.599,0 2.861,1.231 2.861,2.827c-0.001,1.374 -1.066,2.829 -2.832,2.829c-1.767,0 -2.832,-1.428 -2.832,-2.799c0,-1.794 1.43,-2.857 2.803,-2.857Zm5.132,1.372l0.588,0l0,4.76l-0.588,0l0,-4.76Zm0.279,-0.645c0,0 0,0 -0.001,0c-0.276,0 -0.503,-0.226 -0.503,-0.501c0,-0.001 0,-0.002 0,-0.003c0,-0.279 0.224,-0.504 0.504,-0.504c0.28,0 0.505,0.225 0.505,0.504c0,0.281 -0.223,0.504 -0.505,0.504Zm2.384,0c-0.001,0 -0.002,0 -0.002,0c-0.276,0 -0.503,-0.226 -0.503,-0.501c0,-0.001 0,-0.002 0,-0.003c0,-0.279 0.225,-0.504 0.505,-0.504c0.28,0 0.505,0.225 0.505,0.504c0,0.281 -0.224,0.504 -0.505,0.504Zm-0.28,0.645l0.589,0l0,4.76l-0.589,0l0,-4.76Zm4.121,4.845c-1.094,0 -1.738,-0.84 -1.738,-1.68l0,-4.482l0.588,0l0,1.317l2.075,0l0,0.588l-2.074,0l0,2.604c0,0.532 0.42,1.092 1.149,1.092c0.196,0 0.393,-0.056 0.56,-0.168l0.057,-0.027l0.28,0.504l-0.056,0.027c-0.252,0.141 -0.56,0.225 -0.841,0.225Zm3.897,0.027c-1.598,0 -2.551,-1.26 -2.551,-2.492c0,-1.597 1.261,-2.548 2.495,-2.548c0.645,0 1.15,0.224 1.514,0.644l0,-0.476l0.589,0l0,4.76l-0.589,0l0,-0.532c-0.336,0.42 -0.84,0.644 -1.458,0.644Zm-0.056,-4.452c-0.953,0 -1.907,0.728 -1.907,1.959c0,0.954 0.73,1.905 1.963,1.905c0.56,0 1.122,-0.252 1.486,-0.699l0,-2.466c-0.385,-0.449 -0.949,-0.705 -1.542,-0.699Z" style="fill-rule:nonzero;"/></svg>