<?xml version="1.0" encoding="UTF-8" standalone="no"?><!DOCTYPE svg PUBLIC "-//W3C//DTD SVG 1.1//EN" "http://www.w3.org/Graphics/SVG/1.1/DTD/svg11.dtd"><svg width="100%" height="100%" viewBox="0 0 28 28" version="1.1" xmlns="http://www.w3.org/2000/svg" xmlns:xlink="http://www.w3.org/1999/xlink" xml:space="preserve" xmlns:serif="http://www.serif.com/" style="fill-rule:evenodd;clip-rule:evenodd;stroke-linejoin:round;stroke-miterlimit:1.41421;"><path d="M9.197,13.551c0,-2.24 -1.72,-4.555 -4.637,-4.555c-2.242,-0.001 -4.56,1.718 -4.56,4.63c0,2.24 1.72,4.555 4.635,4.555c0.935,0 1.869,-0.298 2.654,-0.858l1.347,1.344l0.598,-0.598l-1.272,-1.269c0.786,-0.859 1.235,-1.979 1.235,-3.249Zm-4.637,-3.733c2.132,0 3.814,1.642 3.814,3.77c0,1.831 -1.421,3.772 -3.776,3.772c-2.355,0 -3.776,-1.904 -3.776,-3.733c0,-2.391 1.907,-3.809 3.738,-3.809Zm6.842,1.829l0.785,0l0,6.347l-0.785,0l0,-6.347Zm0.373,-0.859c-0.001,0 -0.001,0 -0.002,0c-0.368,0 -0.67,-0.302 -0.67,-0.669c0,-0.001 0,-0.002 0,-0.003c0,-0.373 0.299,-0.672 0.672,-0.672c0.373,0 0.673,0.299 0.673,0.672c0,0.374 -0.298,0.672 -0.673,0.672Zm3.178,0c-0.001,0 -0.002,0 -0.003,0c-0.368,0 -0.67,-0.302 -0.67,-0.669c0,-0.001 0,-0.002 0,-0.003c0,-0.373 0.3,-0.672 0.673,-0.672c0.373,0 0.673,0.299 0.673,0.672c0,0.374 -0.298,0.672 -0.673,0.672Zm-0.373,0.859l0.785,0l0,6.347l-0.785,0l0,-6.347Zm5.495,6.46c-1.459,0 -2.318,-1.12 -2.318,-2.24l0,-5.975l0.785,0l0,1.755l2.766,0l0,0.784l-2.765,0l0,3.473c0,0.709 0.56,1.456 1.532,1.456c0.261,0 0.524,-0.075 0.746,-0.224l0.076,-0.037l0.374,0.672l-0.075,0.037c-0.336,0.187 -0.747,0.299 -1.121,0.299Zm5.196,0.037c-2.131,0 -3.402,-1.68 -3.402,-3.323c0,-2.129 1.682,-3.398 3.327,-3.398c0.86,0 1.533,0.299 2.019,0.859l0,-0.635l0.785,0l0,6.347l-0.785,0l0,-0.709c-0.448,0.56 -1.121,0.859 -1.944,0.859Zm-0.075,-5.937c-1.271,0 -2.543,0.971 -2.543,2.613c0,1.271 0.973,2.54 2.618,2.54c0.747,0 1.496,-0.336 1.981,-0.933l0,-3.287c-0.513,-0.599 -1.266,-0.941 -2.056,-0.933Z" style="fill-rule:nonzero;"/></svg>